<svg xmlns="http://www.w3.org/2000/svg" viewBox="0 0 1448.79 562.62"><defs><style>.cls-1{fill:#005098;}</style></defs><title>Contacta heath AZUL</title><g id="Capa_2" data-name="Capa 2"><g id="Capa_1-2" data-name="Capa 1"><path class="cls-1" d="M694,173v1.87q0,35.67,0,71.35c0,1.39-.36,1.68-1.7,1.67q-16.61-.09-33.21,0c-1.08,0-1.42-.23-1.42-1.38q0-67.27,0-134.55c0-1.09.26-1.42,1.39-1.41q15.61.08,31.24,0a2.76,2.76,0,0,1,2.53,1.29q26,34.8,52.13,69.55c.28.37.57.73,1.09,1.4V181q0-34.41,0-68.82c0-1.41.39-1.66,1.71-1.66q16.61.09,33.21,0c1.1,0,1.41.27,1.41,1.39q0,67.27,0,134.55c0,1.12-.29,1.41-1.4,1.4q-14.71-.06-29.41,0a2.33,2.33,0,0,1-2.09-1Q722.24,210.49,695,174.16C694.73,173.87,694.49,173.58,694,173Z"/><path class="cls-1" d="M504.62,172.16a68.25,68.25,0,0,1,52-59.21c22.71-5.36,44-2.12,63,12,15.46,11.47,24.23,27.11,26.3,46.27,2.2,20.37-3.38,38.45-17.18,53.7-11.11,12.26-25.09,19.41-41.39,21.94s-31.74.56-46.29-7.06c-20.17-10.57-32.21-27.21-36-49.74-.21-1.24-.34-2.5-.5-3.76a2.1,2.1,0,0,1,1.7-.46q17.31,0,34.61,0a4.43,4.43,0,0,1,1.26.14c.94.34.89,1.25,1.07,2A34.92,34.92,0,0,0,550,202c5.49,6.76,12.44,11,21.22,12,9.49,1.09,18.07-1.06,25.48-7.27a31.86,31.86,0,0,0,9.32-13.2,37.59,37.59,0,0,0-.12-28.55c-5-12.16-14.14-19.39-27.3-20.81-10.15-1.09-19.16,1.9-26.43,9.25A34.21,34.21,0,0,0,543,171c-.12.58-.07,1.26-.81,1.52a5.54,5.54,0,0,1-1.67.15h-33.8C506,172.63,505.22,172.76,504.62,172.16Z"/><path class="cls-1" d="M445.74,110.56c13.87.11,26.42,2.76,37.78,9.85a66.48,66.48,0,0,1,17.94,16.85c.51.68.48,1-.21,1.53q-13,10-25.91,20.06c-.83.65-1.13.31-1.63-.29-3.84-4.69-8.19-8.81-13.74-11.4-16.3-7.61-36.42-1.78-43.42,18.37-4.33,12.45-3.22,24.68,4.3,35.74,6.72,9.88,16.44,13.91,28.3,13,9.65-.76,17.11-5.55,23.39-12.56.82-.91,1.64-1.81,2.39-2.77.38-.49.63-.48,1.11-.14q13.15,9.4,26.34,18.76c.52.37.52.62.17,1.11-10.34,14.21-23.57,24.14-41.1,27.54-15.05,2.93-29.92,2.39-44.12-3.82-22.13-9.67-35.41-26.61-39.73-50.35a68.56,68.56,0,0,1,5.75-43.29c8.82-18.06,23.14-29.7,42.36-35.37A72.87,72.87,0,0,1,445.74,110.56Z"/><path class="cls-1" d="M504.62,172.16c3.32,0,6.65.06,10,.05q13.92,0,27.83-.05a3.29,3.29,0,0,1,2-.38c3.75,0,7.5,0,11.26,0a2.42,2.42,0,0,0,2.44-1.45,17.77,17.77,0,0,1,16.32-9.74,18.56,18.56,0,0,1,2.06,37c-8.09.79-14.2-2.55-18.33-9.47a2.68,2.68,0,0,0-2.68-1.52c-3.71.06-7.41,0-11.12,0a2.78,2.78,0,0,1-1.89-.37c-3.09,0-6.18-.06-9.27-.06l-28.66,0c-3.1,0-6.19,0-9.28,0-10.18,0-20.36,0-30.53,0a1.8,1.8,0,0,0-1.9,1.19,18.18,18.18,0,1,1,.1-16.19,1.48,1.48,0,0,0,1.54,1.06q19.77,0,39.54,0A5.62,5.62,0,0,0,504.62,172.16Z"/><path class="cls-1" d="M987.86,111.78a1.68,1.68,0,0,0-1.83-1.24q-16.26.06-32.51,0a1.84,1.84,0,0,0-2,1.35q-25.11,61.49-50.29,122.94l-5.3,12.94c.32,0,.41.08.5.08q18.51,0,37,0c1,0,1.14-.49,1.39-1.18,2.85-7.93,5.72-15.84,8.54-23.78a1.57,1.57,0,0,1,1.77-1.27q24.14.06,48.28,0a1.49,1.49,0,0,1,1.69,1.18c2.86,7.93,5.8,15.82,8.66,23.74a1.69,1.69,0,0,0,1.91,1.31c12.1,0,24.21,0,36.31,0,1.55,0,1.56,0,1-1.45Q1015.38,179.09,987.86,111.78Zm-8.67,81.27H955.85c-.67,0-1.34.18-.88-1q7.11-17.77,14.15-35.58a3.72,3.72,0,0,1,.37-.49L984,193.05Z"/><path class="cls-1" d="M1429.34,246.28q-27.49-67.17-55-134.35a1.86,1.86,0,0,0-2-1.4q-16.18.09-32.37,0a1.94,1.94,0,0,0-2.1,1.47q-25.38,62.13-50.82,124.22c-1.56,3.8-3.11,7.61-4.72,11.58.41,0,.6,0,.78,0,12.2,0,24.4,0,36.6,0,1,0,1.27-.39,1.55-1.19,2.82-7.94,5.69-15.86,8.52-23.79.3-.84.63-1.26,1.66-1.25q24.21.06,48.41,0a1.5,1.5,0,0,1,1.68,1.2c2.86,7.88,5.78,15.73,8.63,23.6a1.75,1.75,0,0,0,1.95,1.44c12.15,0,24.31,0,36.46,0h1.35C1429.69,247.23,1429.53,246.75,1429.34,246.28Zm-60.45-53.23h-26.43c-.8,0-1.5.16-1-1.14q7.07-17.64,14-35.31l.33-.74c1,2.48,1.89,4.71,2.77,6.95q5.64,14.37,11.26,28.73C1370.47,193,1370.47,193.05,1368.89,193.05Z"/><path class="cls-1" d="M1168.72,216.81l-24.17-17.21c-2.44-1.75-2.43-1.73-4.35.49-6.36,7.36-13.86,12.71-23.9,13.62-11,1-20.55-2.21-27.39-11.11-9.06-11.78-10.32-25-5.24-38.7,5.55-15,19.59-22.7,35.24-19.81,7.83,1.45,14,5.71,19.35,11.49,1,1.09,1.8,3.07,3,3.08s2.39-1.61,3.57-2.53q11.52-8.9,23-17.8c.61-.47.87-.74.29-1.52a64.53,64.53,0,0,0-21.44-18.9c-10.54-5.64-21.89-7.79-35-7.81a66.74,66.74,0,0,0-15.61,1.82c-21,5-36.68,17-46.19,36.52-7,14.4-8.42,29.64-5.29,45.24A64.45,64.45,0,0,0,1068.85,233c14,10.89,30.07,15.14,47.67,14.13a71.52,71.52,0,0,0,24.67-5.54c11.59-5,20.51-13.29,27.94-23.33C1169.74,217.47,1169.3,217.22,1168.72,216.81Z"/><path class="cls-1" d="M1295.16,143.81q-.08-15.83,0-31.67c0-1.3-.35-1.61-1.62-1.6q-28.15.06-56.31,0t-56.3,0c-1.15,0-1.6.16-1.59,1.49q.11,15.9,0,31.81c0,1.19.31,1.46,1.48,1.46q18.15-.06,36.31,0c1.81,0,1.81,0,1.81,1.81q0,49.62,0,99.24c0,1.21.27,1.57,1.54,1.57,11.12-.06,22.24,0,33.36,0,2,0,1.8.26,1.8-1.79q0-49.47,0-98.95c0-2.06-.28-1.83,1.76-1.83,12.1,0,24.21,0,36.31,0C1294.9,145.31,1295.16,145,1295.16,143.81Z"/><path class="cls-1" d="M908.71,143q-.08-15.83,0-31.66c0-1.28-.37-1.54-1.58-1.53q-28.14,0-56.29,0t-56.44,0c-1.28,0-1.54.35-1.53,1.56q.07,15.84,0,31.67c0,1.28.37,1.54,1.58,1.54,12.15-.05,24.3,0,36.45-.06,1.35,0,1.69.3,1.69,1.67q-.06,49.68-.06,99.37c0,1.28.32,1.61,1.6,1.6q16.68-.07,33.36,0c1.33,0,1.7-.28,1.7-1.67q-.07-49.75-.06-99.5c0-1.15.26-1.48,1.45-1.48,12.2.05,24.39,0,36.59.06C908.42,144.56,908.72,144.22,908.71,143Z"/><path class="cls-1" d="M1096.05,179.16A18.18,18.18,0,1,0,1114.2,161,18.17,18.17,0,0,0,1096.05,179.16Z"/><path class="cls-1" d="M678.31,446.74l9.36-90.13-9.07-.88a6.32,6.32,0,0,0-7,5.85l-10,86.92c-24.58,2.34-47.41,5.56-68.77,9.65l8.49-80.47-8.78-.88c-3.8-.29-7,2.05-7.32,5.85l-10,78.72c-8.48,1.76-16.68,3.51-24.87,5.56S537,477.47,539.31,485.66c10.83-2.93,22.24-5.56,34.24-8.19l-7.61,61.45h12c3.51,0,6.44-2.93,7-6.44L591.11,474c21.36-3.8,44.18-7,68.76-9.65l-10.24,91a5.84,5.84,0,0,0,5,6.43l12,.88,10.24-100.08c3.22-.29,6.14-.58,9.36-.88A15.83,15.83,0,0,0,700.55,445C692.94,445.57,685.63,446.15,678.31,446.74Z"/><path class="cls-1" d="M1236.63,456.4c-10.24,19.31-69.65,67.89-55.89,24.87,9.66-29.85,9.36-47.41,1.46-55.31-2.34-2-7.31-5.56-15.8-2.63-10.54,3.22-24,15.8-35.41,31.9l9.16-40.85,20.11-.12a21.09,21.09,0,0,0,12.87-5.27c3.81-3.22,6.15-7.32,7.61-12.88l-37,2.42,6.31-28.17a11.1,11.1,0,0,0-8.78-13.17l-5.85-.87-7.67,43.26-63.44,4.14a7.66,7.66,0,0,1,.59-2.05c1.46-3.51,2.93-7.9,5-12.87,1.75-5,3.51-9.95,5.56-14.93,2-4.68,3.51-8.48,4.68-11.12a7.3,7.3,0,0,0,0-5,7.51,7.51,0,0,0-3.22-3.51l-8.2-3.81c-1.46,3.52-3.51,8.49-5.85,14.64s-4.68,12.58-7.31,19.31-4.69,12.58-6.44,17.56a27.72,27.72,0,0,1-.88,2.63L995,408.13c9-23.19,14.58-44.55,11.91-52.69a9.21,9.21,0,0,0-7-6.44c-7.32-1.17-14.63,4.68-23.12,17.85-13.24,20.81-29.47,62.58-30.72,96-27.78,29.87-55.21,21.24-53.84-1.53.58-11.7,3.51-20.78,6.14-29a6.27,6.27,0,0,0-3.22-7.9c-2.92-1.46-10.82-.29-12.58,2.34-39.8,61.45-60,77-66.72,74.33-3.51-1.46-3.51-12.88-1.76-21.36,3.22-17.56,19.32-39.22,50-42.73a10.64,10.64,0,0,0,9.08-10.24v-7.61c-37.05,0-59.07,24.16-68.1,45.59-36.35,42.07-61,35.31-67.68,32.25-4.1-2.05-7.32-6.14-9.66-11.12,22-14.92,41.55-39.8,37.16-55-.87-2.93-4.09-9.95-15.51-9.95-17.55,0-31.6,12.87-36.28,33.65-4.39,19.61.58,45.36,18.73,54.14A30.21,30.21,0,0,0,745,511.7c13.42,0,31.85-8.2,56.29-35,0,.16-.08.34-.11.5-2.93,15.51,1.17,27.8,11.12,31.61a17.33,17.33,0,0,0,6.73,1.46c15.51,0,36.58-17.56,61.16-50.92-.29,3.81-.59,2.34-.59,5.27-1.36,38.59,34.89,35.2,66.4,5.4,0,.34,0,.7,0,1-.3.29.29,2.05.29,2.05.58,9.65,2.92,18.43,7.31,25.16s12.59,14,27.51,14a49,49,0,0,0,8.78-.88c23-3.88,37.85-30,44.19-43.66v.06c-1.46,17.85,1.76,30.14,10.25,37.46a21.27,21.27,0,0,0,13.46,4.39c11.41-.88,23.41-7.32,35.41-18.73,8.71-8.3,16.19-16,22.32-22.91l-5.36,30.22a6.88,6.88,0,0,0,5,7.9l9.66,2.93c5.56-31.31,36.28-74,51.5-74,6.73,0,2.63,6.44-7.9,42.44-6.44,21.94.29,29.84,7.31,32.77a19.17,19.17,0,0,0,7.32,1.46c21.07,0,43.6-29.84,55.31-51.21C1239.56,459,1238.39,456.69,1236.63,456.4ZM753.51,431.52c7.32,9.66-17.26,36.58-29,40.68C721.91,453.18,740.93,419.23,753.51,431.52Zm244.93-74c1.75,14-21.66,66.13-38.34,94.52C964.78,416.89,986.15,368.61,998.44,357.49Zm36.67,100.72a3.8,3.8,0,0,0-1-.64c-7,21.65-61.75,80.18-74.62,17.85,11.17-14,24.1-39,33.74-62.87a9.87,9.87,0,0,0,6.64,2.88l44.77-.29A254.82,254.82,0,0,0,1035.11,458.21Zm82,1.44c-16.14,15.08-29.66,25.42-40.79,31-11.7,5.86-19.9,7.32-24.29,4.39q-7.45-5.7-4.39-29c1.76-13.75,5.86-31,12.59-51.21l64.89-.38Z"/><path class="cls-1" d="M1438.41,295c-.21,0-.42.05-.63.06H359.93v.21H347.74a10.14,10.14,0,0,0-6.83,2.7,9.91,9.91,0,0,0-3.23,6.54l-4.06,46.14L295.52,94.3a10.2,10.2,0,0,0-3.38-6.16,10,10,0,0,0-13.22,0,10.22,10.22,0,0,0-3.38,6.24L246.83,295.3h-121c-18.56,1-21.64-11.05-21.34-23.74V193.41c21-3.68,39.07-16,53-36.22a10.4,10.4,0,0,0,1.28-8.87C178.38,114.89,184,70.26,184,47.11c0-14.13-4.5-24.95-13.37-32.31C162.38,8,151.86,5.56,143.22,5c-3-3-8-4.88-13.61-4.88-9.16,0-16.6,5.1-16.6,11.49s7.44,11.5,16.6,11.5c5.79,0,10.9-2,13.83-5.19,6.39.6,13.6,2.33,19,6.91,5.79,4.81,8.64,12.1,8.64,22.32,0,21.72-4.5,54.85-17.21,82.58a127,127,0,0,1-6,11.72,10,10,0,0,0-7.13,4.28C128.19,164,112.18,173.57,93.1,174.25c-20,0-36.82-9.62-49.82-28.56a10.39,10.39,0,0,0-7.14-4.35,124.38,124.38,0,0,1-6-11.72C17.43,101.89,12.92,68.75,12.92,47c0-10.21,2.86-17.5,8.72-22.31,5.33-4.51,12.62-6.24,18.93-6.84,3,3.16,8.12,5.19,13.83,5.19C63.57,23.07,71,17.88,71,11.5S63.57,0,54.4,0C48.84,0,43.88,2,40.87,4.88c-8.71.68-19.23,3-27.5,9.92C4.51,22.09,0,33,0,47c0,23.23,5.63,67.86,25.24,101.29a10.44,10.44,0,0,0,1.28,8.87c13.75,19.91,36.67,32.24,57.86,36.07v98c0,12.17,15,24.27,26.6,24.27H255.62a10.41,10.41,0,0,0,6.62-2.48,10.2,10.2,0,0,0,3.3-6.23h.08l20.13-141.12,40.5,272.54a10,10,0,0,0,10,8.56h.3a10.08,10.08,0,0,0,9.69-9.16L357,315.51h2.94v.28H1438.41a10.38,10.38,0,0,0,0-20.76Z"/></g></g></svg>