<?xml version="1.0" encoding="UTF-8"?>
<svg xmlns="http://www.w3.org/2000/svg" viewBox="0 0 372.61 372.64">
  <defs>
    <style>.cls-1{fill:#005098;}</style>
  </defs>
  <title>Recurso 5</title>
  <g id="Capa_2" data-name="Capa 2">
    <g id="Capa_1-2" data-name="Capa 1">
      <path class="cls-1" d="M268.14,137.05c-1.36,2.69-2.67,5.83-4.45,8.67-2.23,3.58-2,6.65-.67,10.75,2.06,6.47,6,9.13,12.15,10.84,8.82,2.46,7.35.92,7.42,10,.08,10.87-.18,21.75.12,32.62.12,4-1.18,6.12-5.08,6.67a4.23,4.23,0,0,0-.71.24c-11.31,3.7-11.28,3.71-15.29,14.83a4.45,4.45,0,0,0,.46,3.9c1.78,3.43,3.44,6.94,5.3,10.33,1.09,2,.75,3.4-.82,5Q252.71,264.59,239,278.45c-1.72,1.75-3.28,2-5.27.73a19.67,19.67,0,0,0-2-1c-10.47-5.33-10.46-5.3-21.25-.71a5,5,0,0,0-3,3.5c-1.13,3.7-2.45,7.35-3.59,11.05a3.23,3.23,0,0,1-3.55,2.58q-19.87-.07-39.75,0c-2.05,0-3.34-.68-3.81-2.74-.16-.72-.57-1.4-.68-2.13-1.23-8.48-5.73-13.84-14.3-15.79-1.82-.41-3.24-.72-4.92.19-3.29,1.8-6.7,3.37-10,5.16-1.9,1-3.35,1-5-.63q-13.84-14-27.84-27.84c-1.62-1.6-1.88-3.09-.69-5,.33-.52.5-1.16.87-1.65,5.22-6.82,5.74-13.81,1.19-21.26-1-1.69-1.83-3-3.87-3.6-3.6-1-7.11-2.36-10.7-3.43a3.41,3.41,0,0,1-2.79-3.78q.08-19.87,0-39.74c0-1.9.66-3.1,2.54-3.57.85-.22,1.67-.55,2.5-.82,11.32-3.69,11.29-3.7,15.79-14.74a4.54,4.54,0,0,0-.29-4.24c-1.75-3.32-3.33-6.73-5.14-10-1.11-2-1.11-3.54.66-5.28Q108,120,121.7,106.13c1.7-1.72,3.27-2,5.27-.75a22.19,22.19,0,0,0,2.32,1.21c10.49,5.35,10.47,5.32,21.27.44a4.74,4.74,0,0,0,2.68-3.33c1.09-3.58,2.38-7.1,3.42-10.7a3.62,3.62,0,0,1,4-3q19.68.1,39.37,0c2.3,0,3.37,1,4,3,1.06,3.6,2.39,7.11,3.44,10.7.56,1.88,1.85,2.63,3.42,3.6,7.42,4.54,14.43,4.08,21.25-1.13,3.22-2.46,5.56-1.56,8.28,1.27,8.38,8.76,17.09,17.21,25.64,25.8C267,134.23,268.28,135,268.14,137.05ZM180.4,246c13.12,0,26.23.12,39.35,0,10.84-.13,17.27-9.69,12.64-19.07-13.32-27-26.87-53.87-40.35-80.78a12.46,12.46,0,0,0-11.75-7.34c-5.27,0-9.29,2.65-11.69,7.45q-20.13,40.2-40.21,80.44a12.13,12.13,0,0,0-1.48,7.94c1.42,7.2,6.55,11.35,14.51,11.39C154.41,246.07,167.41,246,180.4,246ZM114,232.21a25.59,25.59,0,0,1,3.24-11.89,7.76,7.76,0,0,0,.35-7.09,62.79,62.79,0,0,1-2.64-32.12c7.75-47.62,64-71.17,103.32-43.3,24.62,17.47,34.34,47.18,24.78,75.9-.6,1.81-1.14,3.48-.08,5.38A29.42,29.42,0,0,1,246.77,232c2.57-3.8,4.67-7.31,5.48-11.12,1.77-8.37,6.2-13.42,14.93-14.36,2.25-.24,3-1.76,2.94-4-.12-5.25,0-10.5-.05-15.74-.12-9.07,1.41-7.52-7.43-10-4.81-1.34-8-3.44-8.75-8.69a15.43,15.43,0,0,0-2.53-6.61c-5.13-7.1-4.74-13.88.44-20.69,1.27-1.68.84-3.12-.69-4.56-3.09-2.92-6-6-9-9-7.65-7.65-7.65-7.65-17.43-2.74a5.32,5.32,0,0,0-.67.35c-1.88,1.31-3.63,1-5.58,0-3.08-1.65-6.15-3.67-9.48-4.4-8.31-1.81-13.48-6.14-14.38-14.91-.23-2.25-1.73-3-4-3-5.5.12-11,0-16.49,0-8.08.08-6.95-1.19-9,6.7-1.4,5.41-3.87,8.82-9.61,9.7a14.61,14.61,0,0,0-6.24,2.44c-7,5.14-13.69,4.51-20.32-.59-1.72-1.33-3.11-.85-4.55.66-3,3.16-6.16,6.2-9.25,9.29-7.46,7.47-7.56,7.52-2.69,16.79,1.42,2.72,1.57,4.93,0,7.63-1.76,3-3.7,6.17-4.31,9.5C106.58,172.79,101.91,177,94,178c-2.53.33-3.5,1.74-3.44,4.37q.24,9.93,0,19.87c-.06,2.64,1,3.84,3.45,4.4,2.3.53,4.49,1.54,6.79,2.1A6.39,6.39,0,0,1,106,213.9,69.23,69.23,0,0,0,114,232.21Zm106.16,26.56h-78.8c3.29,2.19,6.61,4.51,10.26,5.29,8.49,1.82,13.64,6.27,14.62,15.13.25,2.29,1.83,2.94,4,2.87,3.74-.12,7.49.08,11.22-.06,4-.15,8.55,1.48,11.71-.73,2.91-2,2.69-6.75,3.92-10.25a5.75,5.75,0,0,1,4.28-4.11A73.35,73.35,0,0,0,220.11,258.77ZM233,199.22c4.39-23.14-11.85-47.29-26.28-52.56C215.47,164.13,224.06,181.3,233,199.22Zm-105.41.14,26.52-53C138.57,153.22,123.67,175.89,127.61,199.36Zm-13.87,34.91c-1.95,3.85-3.6,7.17-5.3,10.45-.74,1.41-.09,2.35.85,3.28q7.69,7.67,15.36,15.36c.94.94,1.88,1.58,3.29.84,3.27-1.71,6.58-3.36,10.4-5.3C124.05,256.55,116.06,248.61,113.74,234.27ZM222.38,258.9c3.8,1.93,7.11,3.57,10.38,5.29,1.4.73,2.34.13,3.29-.82q7.66-7.69,15.36-15.34c1.1-1.1,1.51-2.15.71-3.64-1.68-3.16-3.26-6.37-5.16-10.13C244.62,248.58,236.67,256.56,222.38,258.9Z"></path>
      <path class="cls-1" d="M78.29,372.56c-24.49,0-49-.08-73.47.08-3.86,0-4.94-1.19-4.81-4.92.32-8.82-.82-7.75,7.56-7.6,3.7.07,4.64-1.17,4.59-4.71-.19-13,0-26-.14-39,0-3.45,1.06-4.54,4.48-4.46,9.37.19,18.75.16,28.12,0,3.14-.06,4.07,1.08,4,4.12-.12,13.25.05,26.49-.12,39.74,0,3.29,1,4.36,4.26,4.25,8.33-.28,7.25.85,7.27-7.15,0-20.12.1-40.23-.06-60.35,0-3.65,1.14-4.72,4.71-4.63q13.66.33,27.36,0c3.7-.09,4.62,1.22,4.6,4.74-.14,21,0,42-.14,63,0,3.48,1,4.55,4.46,4.43,8-.29,7,.79,7.07-7,.05-8.24.12-16.49,0-24.74-.06-3.12.71-4.48,4.15-4.41,9.5.21,19,.18,28.49,0,3.21-.05,4,1.2,4,4.19-.14,9.24.09,18.49-.12,27.74-.08,3.37,1.09,4.23,4.32,4.2,8.67-.07,7.48-1.31,7.83,7.73.15,3.9-1.24,4.82-4.92,4.8C127.27,372.49,102.78,372.56,78.29,372.56Zm5.79-42.23c0-7.5,0-15,0-22.5-.07-8.22,1.17-7.07-7.46-7.33-3.13-.09-4.08,1-4.06,4.07.13,16,0,32,.08,48,0,8.43-1.29,7.29,7.65,7.52,3,.08,3.91-.94,3.86-3.88C84,347.58,84.08,339,84.08,330.33ZM24.61,342.05c0,3.38-.05,6.75,0,10.13.15,8.89-1.54,7.69,8,7.89,2.6.05,3.52-.86,3.48-3.48-.11-8.12,0-16.24-.06-24.37-.09-8.67,1.6-7.53-8.19-7.69-2.43,0-3.35.84-3.29,3.28C24.7,332.55,24.61,337.3,24.61,342.05Zm107.47,6.48c0-1.37,0-2.75,0-4.12-.21-8.88,1.75-7.74-8.4-7.87-2.25,0-3.15.82-3.09,3.08.1,4.12,0,8.25,0,12.37.19,9.11-1.93,7.94,8.57,8.05,2.08,0,3-.8,2.9-2.88C132,354.29,132.07,351.41,132.08,348.53Z"></path>
      <path class="cls-1" d="M60.35,0c14.26,0,27.57,4,40.52,9.57,2.15.92,2.95,2,2.56,4.56-1.64,10.48,2.73,15.71,13.29,15.83,3.26,0,3.92,1.32,3.94,4.24.26,37.09-14.68,66.92-42.8,90.62-5.32,4.49-10.75,8-18.06,7.77a21.17,21.17,0,0,1-12.58-4.21C24.75,111,9.1,89,2.68,61A116.3,116.3,0,0,1,0,34.24c0-3.3,1-4.3,4.31-4.28,7.61,0,12.1-3.51,13.48-9.89a12.27,12.27,0,0,0-.44-5.54c-.58-2.44,0-3.81,2.44-5C31.38,4,47.84,0,60.35,0ZM54.08,117.28v-5c0-18.74,0-37.48,0-56.22,0-9.09-1.25-7.74,7.91-8.07,3.62-.13,4.7,1.06,4.67,4.67-.15,20-.08,40,0,60,0,1.29-.51,2.74.74,4.07a118.52,118.52,0,0,0,11.71-10.42C95.07,90,104.26,70.47,107.29,48c.5-3.73.08-6.36-4.16-8.25C95.7,36.39,91.54,30,90.28,22a4.48,4.48,0,0,0-3.45-4.17,138.6,138.6,0,0,0-16.67-4.28c-2.69-.53-3.67.34-3.58,3,.13,3.74.1,7.49,0,11.24-.21,10,1.82,8.58-9,8.78-2.58.05-3.56-.89-3.51-3.49.12-5.49,0-11,.06-16.49.06-2.64-.78-3.64-3.53-3.1a133.22,133.22,0,0,0-16.67,4.29,4.51,4.51,0,0,0-3.52,4.13A23.42,23.42,0,0,1,18,39.66c-5.2,2.86-5.3,2.94-4.54,8.63A102.25,102.25,0,0,0,26.31,86.37C33.23,98.29,42.48,108.13,54.08,117.28Z"></path>
      <path class="cls-1" d="M306.37,372.55c-9.87,0-19.75,0-29.62,0-11-.05-18.62-7.65-18.65-18.63-.05-15.75,0-31.5,0-47.24,0-7.11,2.94-12.63,9.12-16.09,2.39-1.33,3-2.95,2.92-5.41-.1-7.13-.07-14.25,0-21.38a36.25,36.25,0,0,1,72.49-.05c.06,7.37.08,14.75,0,22.12a4.42,4.42,0,0,0,2.55,4.48c6.49,3.59,9.51,9.24,9.49,16.65,0,15.62,0,31.24,0,46.86,0,11-7.67,18.64-18.61,18.69C326.12,372.59,316.24,372.55,306.37,372.55Zm0-72c-9.37,0-18.73-.05-28.09,0-5.32,0-7.58,2.26-7.6,7.54q-.09,22.1,0,44.19c0,5.49,2.26,7.69,7.82,7.7q27.92.06,55.81,0c5.53,0,7.77-2.23,7.79-7.74q.07-21.9,0-43.81c0-5.72-2.22-7.86-8-7.89C324.8,300.53,315.56,300.56,306.33,300.56ZM306.26,288c6.88,0,13.75,0,20.62,0,1.82,0,3.27-.23,3.19-2.57-.27-8.35.7-16.74-.61-25.07a23.4,23.4,0,0,0-46.21-.17c-1.33,8.45-.39,17-.61,25.45-.06,2.45,1.7,2.35,3.38,2.35Z"></path>
      <path class="cls-1" d="M240.09,66.21a66.26,66.26,0,1,1,66.08,66.34A65.93,65.93,0,0,1,240.09,66.21Zm120,.23c-.71-30.12-23.26-53.63-53.66-53.69C276.6,12.68,253,35.54,252.8,66c-.24,29.82,22.62,53.71,53.29,53.88C336.07,120,359.1,97.06,360.07,66.44Z"></path>
      <path class="cls-1" d="M54.08,210.3c0-20.49.09-41-.07-61.47,0-3.75,1-5,4.84-4.88,8.9.35,7.73-.93,7.74,7.87q.06,59.77,0,119.56c0,5.16,0,5.2-5.13,5.17-8.38-.06-7.36.9-7.38-7.41C54.05,249.53,54.08,229.91,54.08,210.3Z"></path>
      <path class="cls-1" d="M177,78.56c-15.49,0-31-.09-46.47.06-3.43,0-4.58-1-4.47-4.47.3-9.44-1-8.08,8.25-8.1q44.6-.09,89.19,0c5.13,0,5.17,0,5.14,5.16-.06,8.35.9,7.32-7.43,7.35C206.43,78.59,191.69,78.56,177,78.56Z"></path>
      <path class="cls-1" d="M201.35,342.56c-13.62,0-27.23-.1-40.84.06-3.41,0-4.6-1-4.49-4.45.31-9.46-1.05-8.09,8.23-8.12,25.85-.06,51.71.05,77.56-.1,3.76,0,5,1,4.88,4.85-.35,8.9.93,7.69-7.87,7.74C226.33,342.61,213.84,342.56,201.35,342.56Z"></path>
      <path class="cls-1" d="M300.08,180c0-10.62.09-21.23-.05-31.84,0-3,.89-4.21,4-4.13,10.07.27,8.47-1.15,8.51,8.56.09,19.73-.06,39.46.11,59.19,0,3.72-.95,5.06-4.82,4.91-8.92-.36-7.71.93-7.77-7.84C300,199.18,300.08,189.56,300.08,180Z"></path>
      <path class="cls-1" d="M186.61,180.68c0,8.62-.11,17.23,0,25.85.06,3.09-1,4.15-4.08,4.07-10-.25-8.42,1.09-8.47-8.22-.09-16,.06-32-.09-47.94,0-3.43,1-4.58,4.47-4.47,9.44.3,8-1.05,8.1,8.24C186.67,165.7,186.61,173.19,186.61,180.68Z"></path>
      <path class="cls-1" d="M186.57,228.46a6.23,6.23,0,1,1-5.87-6.39A6.08,6.08,0,0,1,186.57,228.46Z"></path>
      <path class="cls-1" d="M306.11,354.56c-6,0-6.26,0-5.95-6.16.22-4.33-.66-7.22-4.79-9.73-6.6-4-8.89-12.78-6.39-20.29a18.37,18.37,0,0,1,34.86.45c2.32,7.31-.09,15.94-6.58,19.9-4,2.42-4.88,5.17-4.73,9.39C312.77,355.14,313.23,354.5,306.11,354.56Zm.24-24.72a5.55,5.55,0,1,0-5.55-5.54A5.86,5.86,0,0,0,306.35,329.84Z"></path>
      <path class="cls-1" d="M323.62,54.56c-2.65.28-5.29.07-7.28-3.66s-17.17-3.46-20-.28a5,5,0,0,0-1.12,5.54,5.84,5.84,0,0,0,5.55,3.77c3.87.18,7.74.07,11.61.11,7.1.07,12.54,3.12,15.95,9.36,3.53,6.48,3.14,13-.8,19.17a17.34,17.34,0,0,1-12.27,7.81c-2.09.35-2.82,1.27-2.65,3.21a1.53,1.53,0,0,1,0,.37c-.28,9.32-.28,9.27-9.58,8.62-2-.14-3.26-.84-2.89-2.88,1.15-6.26-1-9.4-7.53-11-5.74-1.45-8.8-6.65-10.22-12.46-.66-2.72-.1-4.42,3.2-4.18a38.18,38.18,0,0,0,5.24,0,4.33,4.33,0,0,1,4.71,2.65c2.44,4.55,18.08,5,21.18.87,2.73-3.66.37-8.41-4.63-8.85-3.6-.32-7.24-.1-10.86-.12C291,72.5,283.09,66,282.16,56.66c-1-10.19,4.78-18.25,15.09-20.4,2.54-.53,2.83-1.71,2.86-3.81.13-8.76.17-8.65,9-8.48,2.9.06,3.66,1.25,3.54,3.86-.1,2.36-.53,5,.35,7,1,2.27,4.19,1.47,6.32,2.41a18.26,18.26,0,0,1,10.5,11.51c1.62,4.91,1,5.76-4,5.79Z"></path>
    </g>
  </g>
</svg>
