<?xml version="1.0" encoding="UTF-8"?>
<svg xmlns="http://www.w3.org/2000/svg" viewBox="0 0 366.15 372.33">
  <defs>
    <style>.cls-1{fill:#005098;}</style>
  </defs>
  <title>Recurso 3</title>
  <g id="Capa_2" data-name="Capa 2">
    <g id="Capa_1-2" data-name="Capa 1">
      <path class="cls-1" d="M216.58,326.42H77.84c-1.63,0-3.26-.05-4.87.11A6.27,6.27,0,0,0,67,333a6.45,6.45,0,0,0,5.82,6.66,48.13,48.13,0,0,0,5.24.12H276.81a28.28,28.28,0,0,1,5.22.32,4.22,4.22,0,0,1,3.68,4.53c-.09,2.4-1.64,3.86-3.95,4.36a14.18,14.18,0,0,1-3,.16H74.4c-7.07,0-12.33-3.07-15.3-9.46-2.84-6.1-2-12,2.32-17.18,3.41-4.11,8.06-5.79,13.28-5.91,4.25-.09,8.5-.15,12.75,0,2.89.11,4-.89,3.92-3.88-.16-7.5-.1-15,0-22.5a38.93,38.93,0,0,1,37.54-38.32c11.36-.33,18.08-6.56,19.3-17.82a4.66,4.66,0,0,0-1-3.81,44,44,0,0,1-9.54-20.09,7.36,7.36,0,0,0-2.79-4.26c-10.85-9.35-12.46-19.58-5.06-32a6.85,6.85,0,0,0,1.3-4.19c-.4-5-.72-10-1.11-14.94-1.91-24.38,14.6-45.54,39.92-47.69,18.49-1.56,35,4.58,50.61,13.44,9,5.1,12.72,14.14,14.52,23.92,1.55,8.44,1.06,16.92-.19,25.36-.21,1.44-.29,2.66.66,3.88,9,11.34,4,22-3.09,28.79a20.77,20.77,0,0,0-6,9.63,36.15,36.15,0,0,1-6,11.59c-4.22,5.68-3.52,11.9-1.16,17.72,2.54,6.28,7.87,9.57,14.75,9.76,11.21.32,21,3.82,29,11.92s11.42,18,11.61,29.19c.11,6.37,0,12.75.05,19.13,0,5.05,0,5.07,5.33,5.07q39,0,78,0a19.42,19.42,0,0,1,4.82.46,4.31,4.31,0,0,1,3.37,4.43,4.43,4.43,0,0,1-3.38,4.43,18.3,18.3,0,0,1-5.94.52Zm48.25-26.14h-.08c0-3.5.09-7,0-10.5a29.2,29.2,0,0,0-26.57-28.55c-6.08-.65-12.21-.89-17.6-4.42-4.41-2.88-4.38-2.69-6.88,1.7C207,270.16,197.05,276.89,183.57,277c-15,.12-25.91-7.07-32.53-20.63-.59-1.2-.57-3.85-3.1-1.7-5.82,5-12.72,6.44-20.18,6.76-13.92.6-26.41,13.16-26.94,27.06-.31,8.24,0,16.5-.12,24.75,0,2.4.9,3.38,3.32,3.34,4.62-.09,9.25-.13,13.87,0,2.84.09,3.74-1.16,3.64-3.82a91.5,91.5,0,0,1,.1-9.37c.2-2.75,1.54-4.82,4.63-4.91s4.57,1.84,4.81,4.65a61.21,61.21,0,0,1,.19,9c-.22,3.46,1.14,4.53,4.55,4.5,16.5-.14,33-.06,49.5-.06,15.12,0,30.25-.05,45.37,0,2.87,0,4.14-.84,3.93-3.85s0-5.75,0-8.62c0-3.14,1.06-5.46,4.58-5.63,2.86-.15,4.68,1.94,4.8,5.49.1,3,.13,6,0,9-.11,2.53.8,3.65,3.45,3.57,4.62-.13,9.25-.11,13.87,0,2.57.06,3.62-1,3.56-3.54C264.76,308.78,264.83,304.53,264.83,300.28ZM149.32,172c-2.25,0-4.5.05-6.74,0-1.14,0-2,.09-2.12,1.45-.23,2.23-1.79,3.81-2.87,5.61-4.87,8.09-3.77,14.72,3.93,20.17a11.74,11.74,0,0,1,5.09,8.6c2.2,14.16,12.29,24.49,26,27a40.16,40.16,0,0,0,44.95-26.67,25.25,25.25,0,0,1,7.63-12c5.76-5,8-11.53,1.21-18.09a6,6,0,0,1-1.79-6.47c.77-2.43-.35-4-2.56-5.1-3.45-1.78-7.07-3.59-9.6-6.46-4-4.55-7.58-3.85-12.58-1.39C184,166.48,167.33,171.94,149.32,172Zm-9.6-19.59a35.79,35.79,0,0,1,0,4.86c-.55,4,1.52,5.29,5.12,5.43a78.72,78.72,0,0,0,17.14-1.14c15.13-2.75,29.17-8.5,42.74-15.57,4.22-2.21,5.75-1.87,8.67,1.76a40.28,40.28,0,0,0,10.31,8.58c1.33.84,2.68,1.37,2.69-1.07,0-8.66-1.32-16.9-7.34-23.73-3.2-3.63-7.65-5-11.82-7-10.52-4.84-21.39-8.16-33.17-8C152.94,116.84,138.93,131.32,139.72,152.38Zm68.58,88.74c0-5.1.07-5.05-4.42-2.69-12.87,6.77-26.2,8.66-40.18,3.75-1.83-.65-4-2.93-5.37-1.65-1.65,1.57-.52,4.48-.3,6.82a6.52,6.52,0,0,0,.21.72c3.17,12.58,14.71,20.93,27,19.53C198.8,266.05,208.21,255.26,208.3,241.12Z"></path>
      <path class="cls-1" d="M292.55,176.34c3.12,0,6.26-.17,9.37,0s4.34-.9,5.28-3.84a29,29,0,0,1,56.1,14.85c-2.76,12.6-13.64,22.22-25.95,23-13.77.81-25.86-6.9-29.88-19.66-1.2-3.84-3.05-4.75-6.67-4.6-5.86.25-11.75.19-17.62,0-3.2-.09-4.58.68-4.78,4.31a82.72,82.72,0,0,1-6.26,26.5c-1.51,3.7-3.75,5-6.48,3.93-2.9-1.14-3.63-3.69-2.25-7.54,11-30.78,7.66-59.71-12.56-85.64-17.16-22-40.23-33.09-68.31-33-43.8.11-79.79,31.86-85.64,75.46a85.85,85.85,0,0,0,4.73,41.64c.34.94.77,1.85,1.05,2.81.8,2.72.31,5.12-2.51,6.24-3,1.18-5.13-.28-6.3-3a94.23,94.23,0,0,1-6.24-23.08c-1.49-9.92.77-8.26-9.35-8.42-5-.08-10,.06-15,0-2.44-.05-3.78.67-4.63,3.21C53.82,203.85,41.38,212,27,210.28c-13.51-1.59-23.74-12.46-25.43-27C.3,172.08,8,159.36,19,154.61c11.74-5.1,25.56-2.1,33.54,7.26a27.62,27.62,0,0,1,6.12,11.06c.63,2.47,1.85,3.5,4.44,3.45,6.75-.13,13.5-.11,20.25,0,2.49,0,3.48-.82,3.73-3.4,2-20.35,9.38-38.47,22.69-54.06,1.49-1.76,1.37-2.78-.21-4.31-4.94-4.78-9.83-9.62-14.58-14.59-1.88-2-3.34-2.09-5.78-.76A28.94,28.94,0,0,1,47.09,81.18,29.15,29.15,0,0,1,95,52.26c9.69,8.93,12.51,22.82,6.33,34.2-2,3.65-1.48,5.58,1.35,8.16,4.62,4.19,9,8.72,13.28,13.22,1.58,1.65,2.58,2,4.56.3a93.38,93.38,0,0,1,54.4-22.68c2-.16,2.95-1,2.94-3,0-7.25-.06-14.5,0-21.75,0-2.7-1.75-3.17-3.74-3.82-13-4.26-21.13-15.93-20.48-29.4C154.39,12.1,168-.38,183.69,0a29.05,29.05,0,0,1,28.15,28.51c.14,13.61-7.46,24.3-20.55,28.47-2.58.83-3.68,1.91-3.62,4.67.15,6.75.09,13.5,0,20.25,0,2.19.48,3.38,3.07,3.58a92.58,92.58,0,0,1,53.52,22c2.59,2.16,4,1.9,6.12-.36,4.46-4.73,9-9.34,13.79-13.78,2.05-1.92,2-3.31.7-5.7-10.53-19.33,3-42.84,25-43.06,12.12-.12,21.47,5.74,26.74,16.77s3.77,21.55-3.88,30.9c-9.2,11.26-23.94,14-36.49,6.93-2.27-1.26-3.69-1.2-5.49.69q-7,7.3-14.32,14.31c-2,1.89-1.95,3.15-.18,5.25a93.06,93.06,0,0,1,22.19,53.83c.17,2.21.95,3.16,3.16,3.11,3.63-.06,7.25,0,10.88,0ZM202.38,29.2A19.74,19.74,0,0,0,182.92,9.46c-10.63-.18-19.84,9-19.86,19.82A19.52,19.52,0,0,0,183,48.79,19.28,19.28,0,0,0,202.38,29.2ZM315.2,181.06A19.48,19.48,0,0,0,334.72,201a19.66,19.66,0,1,0,.06-39.32A19.4,19.4,0,0,0,315.2,181.06ZM75.37,54.24a19.26,19.26,0,0,0-19.64,19.3A19.53,19.53,0,0,0,75.27,93.47,19.93,19.93,0,0,0,95.06,74,19.56,19.56,0,0,0,75.37,54.24ZM309.74,73.89c0-11.34-8.23-19.65-19.56-19.64a19.42,19.42,0,0,0-19.66,19.37,19.94,19.94,0,0,0,19.77,19.85A19.42,19.42,0,0,0,309.74,73.89Zm-298.42,107a19.49,19.49,0,1,0,39,.7c.13-11-8.23-19.81-19-20C20.12,161.44,11.44,169.79,11.32,180.88Z"></path>
      <path class="cls-1" d="M183.26,362.91h60c1.13,0,2.26,0,3.38.05,2.61.22,4.18,1.65,4.33,4.28s-1.36,4.23-3.81,4.83a16.49,16.49,0,0,1-3.73.24H122.71a16.29,16.29,0,0,1-3.36-.16c-2.63-.54-4.32-2.1-4.15-4.93s2-4.23,4.71-4.28c4-.06,8,0,12,0Z"></path>
      <path class="cls-1" d="M21.81,326.42c-4.49,0-9,0-13.48,0a24.5,24.5,0,0,1-3.73-.22c-2.77-.45-4.74-1.92-4.59-4.94s2.19-4.55,5-4.57q16.85-.17,33.7,0c2.77,0,4.84,1.63,5,4.6.13,3.26-2.11,4.82-5,4.92-5.61.21-11.23.07-16.85.07Z"></path>
      <path class="cls-1" d="M308.56,344.54c-.31,2.69-1.75,4.34-4.54,4.5a4.55,4.55,0,0,1-4.66-4.77c.3-2.72,2-4.42,4.72-4.35S308.35,341.7,308.56,344.54Z"></path>
    </g>
  </g>
</svg>
