<svg width="100" height="74" viewBox="0 0 100 74" fill="none" xmlns="http://www.w3.org/2000/svg">
<g clip-path="url(#clip0_252_18)">
<path d="M70.8469 52.725H46.0708V27.6874L67.4938 36.4506L70.8469 52.725Z" fill="#2F2E41"/>
<path d="M50.6482 48.306C59.532 48.306 66.7338 42.9285 66.7338 36.2951C66.7338 29.6616 59.532 24.2841 50.6482 24.2841C41.7643 24.2841 34.5625 29.6616 34.5625 36.2951C34.5625 42.9285 41.7643 48.306 50.6482 48.306Z" fill="#FFB6B6"/>
<path d="M41.4139 50.0821L40.6872 44.597L55.1992 42.5709L63.7683 58.1498L48.8654 70.9468L38.2471 55.3679L41.4139 50.0821Z" fill="#FFB6B6"/>
<path d="M85.3492 62.7456C85.1685 62.8861 84.9841 63.0252 84.7997 63.1629C84.2147 63.5997 83.6186 64.0239 83.0095 64.4356C73.8814 70.6171 62.1696 74 49.761 74C38.3212 74 27.4737 71.1248 18.6977 65.8322C18.6922 65.8294 18.6884 65.8266 18.6828 65.8224C18.4164 65.6625 18.1538 65.4997 17.8911 65.3342C17.9377 65.2341 17.988 65.1353 18.0383 65.0379C20.8605 59.5477 26.4342 56.8618 29.8172 55.6864C31.4938 55.1036 32.632 54.8907 32.632 54.8907L36.6036 49.5494L39.3998 53.4441L41.4601 56.3151L49.9138 68.0925L57.2069 54.5333L59.4666 50.3297L60.0459 49.2531L62.8011 50.8541L65.4091 52.3689L70.6605 53.2341L74.9209 53.9365L80.707 54.8907C83.0467 56.3137 84.47 59.0206 85.2654 62.3839C85.2952 62.5036 85.3232 62.6246 85.3492 62.7456Z" fill="#FF636D"/>
<path d="M42.1867 22.6455C44.1461 20.188 47.7448 18.5018 51.5607 18.2533C55.3766 18.0047 59.3118 19.2003 61.8115 21.3674C63.301 22.6588 64.2776 24.2404 65.7295 25.5555C68.854 28.3855 74.1818 30.0402 75.5467 33.5635C76.1423 35.1009 75.8455 36.7423 75.5441 38.3269C75.2858 39.685 75.0275 41.0432 74.7692 42.4014C74.5682 43.4583 74.3754 44.5726 74.9062 45.5639C75.5289 46.7268 77.0191 47.4885 77.9827 48.5138C79.6221 50.2583 79.5023 52.8124 77.7033 54.4669C76.9231 55.1844 75.8888 55.7256 75.0708 56.4193C74.2529 57.113 73.6462 58.0614 73.9888 58.9495C74.645 60.6509 78.2183 61.0589 78.6103 62.805C78.8106 63.6978 77.9848 64.5893 76.9028 64.9976C75.8208 65.4058 74.5471 65.4176 73.3436 65.3084C68.7696 64.8933 64.5347 62.7593 62.3077 59.7473C60.0807 56.7354 59.9186 52.9224 61.8851 49.8111C63.5003 47.2556 66.5023 44.9975 66.4696 42.1719C66.4518 40.6325 65.5062 39.1948 64.5815 37.8188C62.689 35.0027 60.7964 32.1866 58.9039 29.3704C57.8901 27.8619 56.7136 26.2363 54.6265 25.5883C53.0135 25.0874 51.1834 25.2817 49.4581 25.4865C47.7329 25.6914 45.9054 25.8908 44.2876 25.3986C42.6698 24.9065 41.4474 23.4443 42.2182 22.2738" fill="#2F2E41"/>
<path d="M45.0054 22.7739C41.8976 22.01 38.4114 23.2363 36.3074 25.1072C34.2035 26.9781 33.1829 29.3783 32.2106 31.711C31.6537 33.0471 31.0968 34.3833 30.5399 35.7194C30.016 36.9763 29.4921 38.2332 28.9682 39.4902C28.352 40.9686 27.7308 42.5393 28.2365 44.0409C28.6021 45.1265 29.5429 46.1122 29.5631 47.2315C29.5843 48.4007 28.6036 49.4272 27.7443 50.4047C26.8849 51.3822 26.0782 52.5436 26.4877 53.6722C27.1104 55.389 30.3069 56.3326 30.1317 58.1063C30.0732 58.6983 29.6148 59.2458 29.6231 59.8394C29.6337 60.5945 30.4255 61.2471 31.3532 61.548C32.2809 61.8488 33.3245 61.8652 34.3357 61.8519C37.4377 61.8112 40.534 61.5361 43.5621 61.0323C44.7271 60.8384 45.9119 60.6007 46.8817 60.0811C47.8514 59.5615 48.5749 58.7006 48.4487 57.8143C48.252 56.4333 46.2634 55.6498 45.2598 54.4804C44.2741 53.3319 44.297 51.8766 43.8719 50.5499C43.2878 48.7265 41.8451 47.1347 40.7621 45.4432C36.6904 39.0842 38.1157 30.9789 44.2479 25.6203C44.7901 25.1465 45.3824 24.6698 45.6086 24.07C45.8348 23.4701 45.5432 22.7058 44.7574 22.496" fill="#2F2E41"/>
<path d="M84.7999 10.8371C75.4408 3.84883 62.9969 0 49.7612 0C36.5256 0 24.0816 3.84883 14.7226 10.8371C5.36353 17.8254 0.208984 27.1171 0.208984 37C0.208984 46.0205 4.50289 54.5486 12.3716 61.2823C13.1224 61.9263 13.9066 62.5536 14.7226 63.1629C14.9145 63.3062 15.1082 63.4494 15.3038 63.5885C15.8254 63.9655 16.3563 64.3341 16.8965 64.6916C17.2244 64.91 17.556 65.1242 17.8913 65.3342C18.154 65.4997 18.4166 65.6625 18.683 65.8224C18.6886 65.8266 18.6924 65.8294 18.6979 65.8322C27.4739 71.1248 38.3214 74 49.7612 74C62.1698 74 73.8816 70.6171 83.0097 64.4356C83.6188 64.0239 84.2149 63.5997 84.7999 63.1629C84.9843 63.0252 85.1687 62.8861 85.3494 62.7456C85.8524 62.3589 86.3405 61.9653 86.8174 61.5661C94.8966 54.7892 99.3135 46.1485 99.3135 37C99.3135 27.1171 94.1589 17.8254 84.7999 10.8371V10.8371ZM86.6963 61.2197C86.2306 61.6147 85.7537 62.0042 85.2656 62.3839C84.5055 62.9751 83.7213 63.5482 82.9109 64.1004C82.6036 64.3118 82.2925 64.5177 81.9776 64.7222C78.7977 66.7878 75.2583 68.5515 71.4413 69.9564C70.1019 70.4502 68.7289 70.8995 67.3243 71.3015C61.868 72.865 55.9459 73.7218 49.7612 73.7218C43.7926 73.7218 38.0699 72.9234 32.7737 71.4629C30.5998 70.8647 28.4985 70.1539 26.481 69.3402C26.1848 69.2206 25.8905 69.0996 25.598 68.9758C24.0593 68.3248 22.5708 67.614 21.142 66.8462C20.0746 66.2745 19.0388 65.6722 18.0385 65.0379C17.6883 64.8168 17.3418 64.5928 17.0009 64.3633C16.4457 63.9947 15.9018 63.615 15.3709 63.2255C14.3649 62.4897 13.4037 61.7232 12.4853 60.9262C5.06921 54.4943 0.581558 46.1318 0.581558 37C0.581558 16.7515 22.6435 0.278196 49.7612 0.278196C76.879 0.278196 98.9409 16.7515 98.9409 37C98.9409 46.2723 94.3154 54.7517 86.6963 61.2197Z" fill="#3F3D56"/>
</g>
<defs>
<clipPath id="clip0_252_18">
<rect width="99.1045" height="74" fill="white" transform="translate(0.208984)"/>
</clipPath>
</defs>
</svg>
